<svg version="1.2" xmlns="http://www.w3.org/2000/svg" viewBox="0 0 1024 1024" width="1024" height="1024">
	<title>adguard-svg</title>
	<style>
		.s0 { fill: #68bc71 } 
		.s1 { fill: #67b279 } 
		.s2 { fill: #ffffff } 
	</style>
	<g id="logo">
		<g id="Group-10">
			<g id="Group-9">
				<g id="Group-8">
					<g id="Group-7">
						<path id="Path" fill-rule="evenodd" class="s0" d="m511.6 5c-154.6 0-341.1 36.4-494.6 116.4 0 172.8-2.1 603.3 494.6 897.5 496.7-294.2 494.6-724.7 494.6-897.5-153.5-80-340-116.4-494.6-116.4z"/>
						<path id="Combined-Shape" fill-rule="evenodd" class="s1" d="m511.1 1018.6c-496.2-294.2-494.1-724.5-494.1-897.2 153.3-80 339.6-116.3 494.1-116.4z"/>
					</g>
					<path id="Fill-11" fill-rule="evenodd" class="s2" d="m493.5 681.5l299.1-403.1c-21.9-17.6-41.1-5.2-51.7 4.4l-0.4 0.1-249.4 259.4-93.9-113.1c-44.8-51.8-105.8-12.3-120-1.8z"/>
				</g>
			</g>
		</g>
	</g>
</svg>