<svg version="1.2" xmlns="http://www.w3.org/2000/svg" viewBox="0 0 1024 1024" width="1024" height="1024">
	<title>bazarr-svg</title>
	<defs>
		<clipPath clipPathUnits="userSpaceOnUse" id="cp1">
			<path d="m5 5h1014v1014h-1014z"/>
		</clipPath>
	</defs>
	<style>
		.s0 { fill: #ffffff } 
		.s1 { fill: none;stroke: #000000;stroke-miterlimit:10;stroke-width: 24 } 
		.s2 { fill: #000000 } 
	</style>
	<g id="g8">
		<g id="g10">
			<g id="Clip-Path: g12" clip-path="url(#cp1)">
				<g id="g12">
					<g id="g18">
						<path id="path20" class="s0" d="m512 1007.1c-273.8 0-495.1-221.3-495.1-495.1 0-273.8 221.3-495.1 495.1-495.1 273.8 0 495.1 221.3 495.1 495.1 0 273.8-221.3 495.1-495.1 495.1z"/>
					</g>
					<g id="g22">
						<path id="path24" fill-rule="evenodd" class="s1" d="m512 1007.1c-273.8 0-495.1-221.3-495.1-495.1 0-273.8 221.3-495.1 495.1-495.1 273.8 0 495.1 221.3 495.1 495.1 0 273.8-221.3 495.1-495.1 495.1z"/>
					</g>
					<g id="g26">
						<path id="path28" class="s2" d="m809.5 782.4q-297.9 18.9-595.8 0c-50.3-3.5-99.5-48.6-105.6-99.1q-20.3-178.5 0-357c6.1-50.5 55.3-95.7 105.6-99.1q297.9-19 595.8 0c50.3 3.4 99.5 48.6 105.6 99.1q20.3 178.5 0 357c-6.1 50.5-55.3 95.6-105.6 99.1z"/>
					</g>
					<g id="g30">
						<path id="path32" class="s0" d="m308.6 711.6c0-10.9 8.8-19.7 19.7-19.7h366.6c10.9 0 19.7 8.8 19.7 19.7 0 10.8-8.8 19.6-19.7 19.6h-366.6c-10.9 0-19.7-8.8-19.7-19.6z"/>
					</g>
					<g id="g34">
						<path id="path36" class="s0" d="m790.3 652.4h-557.5c-10.8 0-19.8-8.9-19.8-19.8 0-10.9 9-19.8 19.8-19.8h557.5c10.9 0 19.8 8.9 19.8 19.8 0 10.9-8.9 19.8-19.8 19.8z"/>
					</g>
				</g>
			</g>
		</g>
	</g>
</svg>