<svg version="1.2" xmlns="http://www.w3.org/2000/svg" viewBox="0 0 1024 1024" width="1024" height="1024">
	<title>plex-svg</title>
	<style>
		.s0 { fill: #333332 } 
		.s1 { fill: #e5a322 } 
	</style>
	<g id="Background">
		<path id="Path 0" class="s0" d="m102.7 6.4c-2.3 0.6-8.8 2.5-14.4 4.2-5.7 1.7-13.5 4.7-17.5 6.6-3.9 2-10.4 5.9-14.4 8.5-4 2.7-11.2 8.7-16 13.4-4.9 4.7-11.5 12.4-14.6 17-3.3 4.6-7.4 11.4-9.2 15-1.8 3.6-4.7 10.5-6.2 15.1-1.6 4.6-3.6 12.7-4.6 18-1.6 8.5-1.8 59.5-1.8 408.2 0 348.7 0.2 399.8 1.8 408.2 1 5.3 3 13.4 4.6 18.1 1.5 4.7 4.4 11.4 6.2 15 1.8 3.6 5.9 10.4 9.2 15.1 3.1 4.7 9.7 12.3 14.6 17 4.8 4.7 12 10.7 16 13.3 4 2.7 10.5 6.5 14.4 8.5 4 2 10.7 4.8 15.1 6.1 4.3 1.3 11.2 3.4 15.4 4.3 6.7 1.7 49 2 410.2 2 361.3 0 403.5-0.3 410.4-2 4.1-0.9 10.9-3 15.3-4.3 4.3-1.3 11-4.1 15-6.1 4-2 10.5-5.8 14.5-8.5 3.9-2.6 11.2-8.6 16-13.3 4.8-4.7 11.4-12.3 14.6-17 3.2-4.7 7.3-11.5 9.1-15.1 1.8-3.6 4.7-10.3 6.3-15 1.5-4.7 3.6-12.8 4.5-18.1 1.6-8.4 1.8-59.5 1.8-408.2 0-348.7-0.2-399.7-1.8-408.2-0.9-5.3-3-13.4-4.5-18-1.6-4.6-4.5-11.5-6.3-15.1-1.8-3.6-5.9-10.4-9.1-15-3.2-4.6-9.8-12.3-14.6-17-4.8-4.7-12.1-10.7-16-13.4-4-2.6-10.5-6.5-14.5-8.4-4-2-10.7-4.8-15-6.1-4.4-1.4-11.2-3.4-15.4-4.4-6.8-1.7-48.9-1.9-411.1-1.8-261.7 0.1-405.2 0.6-408 1.4z"/>
		<path id="Path 1" class="s1" d="m326.8 164.2c1.1 1.5 50.1 77.7 108.9 169.4 58.8 91.8 108.7 169.6 110.9 172.8l3.8 6-224.8 354c182 0.6 203.7 0.3 205.1-0.8 0.8-0.9 50.3-77.7 109.8-170.8 59.3-93 109.7-171.5 111.6-174.5l3.4-5.5c-172.9-271.5-223.4-351.1-223.6-351.9-0.4-1.1-22.2-1.5-103.7-1.5h-103.2z"/>
	</g>
</svg>