<svg version="1.2" xmlns="http://www.w3.org/2000/svg" viewBox="0 0 1024 1024" width="1024" height="1024">
	<title>prowlarr-svg</title>
	<style>
		.s0 { fill: #ffe6d5 } 
		.s1 { fill: #83331b } 
		.s2 { fill: #f8a37b } 
		.s3 { fill: #da845d } 
		.s4 { fill: #dee6e3 } 
		.s5 { fill: #d4541e } 
		.s6 { fill: #852e1b } 
		.s7 { fill: #ffffff } 
		.s8 { fill: #e2591e } 
		.s9 { fill: #83bad2 } 
		.s10 { fill: #ba4a1f } 
		.s11 { fill: #6f2717 } 
		.s12 { fill: #e66733 } 
		.s13 { fill: #94401d } 
		.s14 { fill: #ef5d22 } 
		.s15 { fill: #c74d1f } 
		.s16 { fill: #f46a2f } 
		.s17 { fill: #fddd04 } 
		.s18 { fill: #391913 } 
		.s19 { fill: #a33f1e } 
		.s20 { fill: #de581d } 
		.s21 { fill: #d5d0cd } 
		.s22 { fill: #a6b9b5 } 
		.s23 { fill: #f6854f } 
		.s24 { fill: #f06c34 } 
		.s25 { fill: #e66001 } 
	</style>
	<g id="Layer">
		<path id="Layer" class="s0" d="m512.5 999.7c-269.4 0-487.2-217.8-487.2-487.2 0-269.4 217.8-487.2 487.2-487.2 269.4 0 487.2 217.8 487.2 487.2 0 269.4-217.8 487.2-487.2 487.2z"/>
		<path id="Layer" class="s1" d="m178.5 601.5l87.6-102.8 657.6-2.2-85.4 105z"/>
		<path id="Layer" class="s2" d="m178.5 601.6v276.4c12 0.5 23.6 2 34.3 4.5 10.7 2.4 20.4 5.7 28.4 9.8 8.1 4 14.5 8.6 18.8 13.7 4.3 5.1 6.6 10.5 6.6 15.9h510.6q-1.5-2.2-2.7-4.4-1.1-2.3-1.9-4.6-0.7-2.3-1.1-4.6-0.4-2.4-0.4-4.8c0-5.7 1.7-11.3 5-16.6 3.3-5.4 8.2-10.3 14.3-14.5 6.2-4.2 13.6-7.6 21.8-10.1 8.2-2.6 17.1-4.1 26.2-4.6v-256.1z"/>
		<path id="Layer" class="s3" d="m556.2 648.2c10.7-5.8 27-23 16.9-40.3-1.8-3.1-3.7-5.2-5.4-6.4h44.1c-5.8 12.7-26.5 27.9-26.5 27.9 0 0-1.7 3.3-10.9 10.6-5.2 4-12.7 6.6-18.2 8.2zm-130.1-0.8c-5.4-2.5-13.3-6.8-18.8-12.7-9.3-9.8-11.1-22.7-11.1-22.7l-6.6-10.5h26.3c-1.8 1.2-3.6 3.3-5.5 6.4-9.7 16.6 5.1 33.2 15.7 39.5zm120.6-5.2c-5.7-0.5-16.4-2-27.1-5.5-15.8-5.3-25-17.1-25-17.1 0 0-17.7 10.8-41.3 15.1-7.9 1.5-13.1 2-16.4 2h-0.2c-0.4-8-2.1-16.4-2.1-16.4 0 0-4.4-14.4-11.2-18.8h136.7c-6.7 4.4-11.2 18.8-11.2 18.8 0 0-2.5 13.1-2.2 21.9z"/>
		<path id="Layer" fill-rule="evenodd" class="s4" d="m410.4 608c-13.3 22.6 19.2 45.3 24.2 41.8 5-3.4 0-29.5 0-29.5 0 0-10.9-35-24.2-12.3zm138.5 12.3c0 0-5 26.1 0 29.5 5 3.5 37.5-19.2 24.2-41.8-13.3-22.7-24.2 12.3-24.2 12.3z"/>
		<path id="Layer" class="s5" d="m356.2 401.5c6.1 28.9-12.5 57.2-41.3 63.3-28.9 6-57.2-12.5-63.3-41.4-6-28.9 12.5-57.2 41.4-63.2 28.9-6.1 57.2 12.4 63.2 41.3z"/>
		<path id="Layer" class="s6" d="m335.3 369.3q-4.5-3.3-9.6-5.6-5.1-2.3-10.6-3.4-5.5-1.2-11.1-1.2-5.6-0.1-11 1.1c-28.9 6-47.4 34.4-41.4 63.2q0.5 2.3 1.2 4.5 0.7 2.3 1.5 4.4 0.9 2.2 2 4.3 1 2.1 2.3 4c23.5-8 59.2-27.1 76.7-71.3z"/>
		<path id="Layer" class="s7" d="m333 406.4c1.8 7.8 0.3 15.9-4 22.6-4.3 6.7-11.1 11.4-18.9 13-7.8 1.7-15.9 0.1-22.6-4.3-6.6-4.4-11.2-11.3-12.7-19.1-1.5-7.7 0.1-15.6 4.4-22.1 4.4-6.6 11.1-11.1 18.7-12.7 7.7-1.6 15.6-0.1 22.2 4.1 6.6 4.2 11.2 10.9 12.9 18.5z"/>
		<path id="Layer" class="s8" d="m698.9 391.6c-7 0-13.8-2.5-19.2-7-5.3-4.6-8.9-10.9-10-17.8-1.1-6.9 0.2-14 3.9-20 3.6-6 9.2-10.5 15.9-12.8 8.5-2.9 50.1-19.5 37.7-58.2-9-28.1-26-32.2-76.3-37.5-9.2-1-18.7-2-28.6-3.4-35.5-5.1-61.7-19.8-77.7-43.7-23.3-34.9-14.2-74.4-13-78.8 1.9-7.6 6.8-14.1 13.5-18.1 6.7-4 14.8-5.2 22.4-3.3 7.6 2 14.1 6.8 18.1 13.6 4 6.7 5.2 14.8 3.2 22.4 0.1 0-4 18.3 5.2 31.6 6.3 9.2 18.6 15.2 36.7 17.8 8.8 1.2 17.8 2.2 26.5 3.1 46.7 5 104.8 11.1 126.3 78.2 22.9 71.4-32.5 118.3-75.3 132.4q-1.2 0.4-2.3 0.7-1.2 0.3-2.3 0.4-1.2 0.2-2.4 0.3-1.1 0.1-2.3 0.1z"/>
		<g id="Layer">
			<path id="Layer" class="s6" d="m594 158.6l-0.9-1.4c-19.5 12.4-44.1 15.1-57.9 15.5q0.9 2.4 2 4.8 1 2.4 2.2 4.7 1.2 2.3 2.5 4.6 1.3 2.2 2.7 4.4c5.3 7.8 11.7 14.5 19.1 20.3 25.9-4.2 46.7-23.7 58.2-36.8-13.3-3.1-22.7-8.5-27.9-16.1zm62.7 80.3c21.2 2.4 36.1 4.7 46.7 9.1 7.3-12.1 17.5-32.2 21.3-54.9-15.7-6.3-32.6-9.4-48.9-11.5 1.4 14.7 0.4 40.1-19.1 57.3zm129.5 73.1c3.3-13.4 3.6-28.4-0.1-44.8q-2.5 2-5.2 3.8-2.7 1.7-5.6 3.2-2.9 1.4-5.9 2.5-3 1.2-6.1 2c-16 4.1-27.4 3.9-34.7 2.7 3.2 16-3.1 27.8-11.6 36.1 26.2 11.5 51.9 3.6 69.2-5.5z"/>
		</g>
		<path id="Layer" fill-rule="evenodd" class="s9" d="m728.8 296.5h-0.1q0.1-0.5 0.2-1.1l0.2-1.3q0.2-2 0.3-4.1v-0.9q0-0.7 0-1.4-0.1-0.7-0.1-1.4-0.1-0.7-0.2-1.5 0-0.7-0.1-1.4c-0.4-2.1-0.8-4.4-1.5-6.7q0.7 2.4 1.1 4.7c1.1 5.5 1.1 10.5 0.2 15.1zm-1.3-19.8q-0.2-0.4-0.3-0.9 0.1 0.5 0.3 0.9zm-70.8-37.8q-2.8-0.3-5.8-0.6-5.4-0.6-11-1.2 5.6 0.6 11.1 1.2 2.9 0.3 5.7 0.6zm-34.4-4.1l-0.8-0.1 0.8 0.1q3.8 0.6 7.6 1.1-3.8-0.5-7.6-1.1zm7.6 1.1q5.1 0.6 10 1.2-4.9-0.6-10-1.2zm-8.7-1.2h0.1c0 0-0.1 0-0.1 0zm106 41.1v-0.1c-4.7-14.5-11.4-22.5-23.8-27.7 12.4 5.2 19.1 13.2 23.8 27.7zm-106.3-41.2z"/>
		<path id="Layer" class="s10" d="m781.7 325.5q-5-3.7-10.1-7.1c5.2-1.8 10-4 14.3-6.2l0.2 0.1q-0.4 1.7-0.9 3.4-0.5 1.6-1 3.3-0.6 1.6-1.2 3.2-0.6 1.7-1.3 3.3zm-43.3-43.4c-3.8 0-7.1-0.3-9.8-0.7q-0.1-0.7-0.3-1.4-0.1-0.7-0.3-1.4-0.2-0.7-0.4-1.4-0.2-0.7-0.4-1.4 0 0 0-0.1c-4.7-14.5-11.4-22.5-23.8-27.7 2.7-4.5 5.8-10 8.8-16.3 14.8 6 25 15.3 32.5 30.3 3.1 6.2 4.1 12.8 3.8 19.5q-1.3 0.1-2.5 0.3-1.3 0.1-2.5 0.2-1.3 0-2.5 0.1-1.3 0-2.6 0zm-81.7-43.2q-2.8-0.3-5.8-0.6c-9.2-1-18.7-2-28.6-3.5l-0.8-0.1q0 0 0 0 0 0-0.1 0 0 0 0 0 0 0-0.1 0h-0.1l-0.3-0.1c-26.4-3.9-47.5-13.4-63-28q2.8 2.6 5.8 4.9 4.6-0.7 9-2.1c14.9 4.8 33.6 8.9 56.5 10.2 15.1 0.9 28.4 1.8 40 3q-1.1 2.3-2.5 4.5-1.4 2.2-2.9 4.3-1.6 2-3.4 3.9-1.7 1.9-3.7 3.6z"/>
		<g id="Layer">
			<path id="Layer" class="s11" d="m563.7 211.6q-3-2.4-5.8-5-2.5-2.3-4.8-4.8 2.4 1.1 4.8 2.1 2.4 1.1 4.9 2 2.4 1 4.9 1.9 2.5 0.8 5 1.6-4.4 1.4-9 2.2zm139.7 36.4c-10.6-4.5-25.5-6.8-46.7-9.1q2-1.7 3.7-3.6 1.8-1.9 3.4-3.9 1.5-2.1 2.9-4.3 1.4-2.1 2.5-4.5c17.7 1.9 31.7 4.6 43 9.1q-1 2.1-2.1 4.2-1 2-2.1 4.1-1.1 2-2.2 4-1.2 2-2.4 4zm68.2 70.4q-5-3.4-10.2-6.4-5.2-3.1-10.6-5.8-5.3-2.7-10.9-5.2-5.5-2.4-11.1-4.5c0.9-4.6 0.9-9.6-0.2-15.1q1.3 0.2 2.5 0.3 1.2 0.2 2.4 0.3 1.3 0 2.5 0.1 1.2 0 2.4 0c3 0 6.4-0.2 10.1-0.6q-0.1 1.1-0.2 2.2-0.1 1.2-0.2 2.3-0.2 1.1-0.4 2.2-0.2 1.1-0.4 2.2 5.1 2.2 10.1 4.7 4.9 2.5 9.8 5.2 4.8 2.7 9.5 5.7 4.7 3 9.2 6.2-1.7 0.9-3.5 1.7-1.8 0.9-3.5 1.6-1.8 0.8-3.7 1.5-1.8 0.7-3.6 1.4z"/>
		</g>
		<path id="Layer" class="s12" d="m774.3 262.5c0 0-24-33.5-54.4-50.1q1.9-5.9 3.3-12.1c5.1 2.4 9.6 5.1 13.5 8.2 26.8 21.8 37.6 54 37.6 54zm-98.1-68c-17.6-6.4-30-10.1-30-10.1 0 0 13.1 0.5 30 3q0 0.9 0 1.8 0 0.9 0 1.7 0 0.9 0 1.8 0 0.9 0 1.8z"/>
		<path id="Layer" class="s13" d="m719.9 212.3q-3.9-2.1-7.9-3.8-4.4-1.9-8.9-3.7-4.4-1.8-8.9-3.6-4.5-1.8-9-3.4-4.5-1.7-9-3.4 0.1-3.7 0-7c14.9 2.3 32.8 6.2 47 12.9q-0.3 1.5-0.7 3.1-0.4 1.5-0.8 3-0.4 1.5-0.9 3-0.4 1.4-0.9 2.9z"/>
		<path id="Layer" class="s14" d="m451.4 356.5c0 0 78.4-92.4 237.3-70.1 158.8 22.4 217.9 229.8 217.9 229.8l-68.3 85.4h-386.9z"/>
		<path id="Layer" class="s6" d="m476.4 334.2c16.9-4.6 43.7-8.3 85.1-5.4 100.3 6.9 230.6 167.7 230.6 167.7 0 0-57.8-183.5-241.6-200-32.9 10.6-57.6 25.4-74.1 37.7z"/>
		<path id="Layer" class="s15" d="m790.9 575.6h-22.6c-6.3-17.4-37.5-99.5-87.5-142.5-41.2-35.4-101-76.6-175.5-80.5q1.4-0.1 2.9-0.1 1.4-0.1 2.8-0.1 1.4-0.1 2.8-0.1 1.4 0 2.9 0c53.7 0 100.1 19.8 137.9 44.1 0.2-0.7 0.2-1.4 0.4-2.1q0.5-2.7 1.4-5.4 0.9-2.7 2-5.3 1.1-2.5 2.5-4.9 1.4-2.5 3.1-4.7c29.9 21.5 58 47.4 80.1 69.8q-2 2-4.2 3.7-2.2 1.7-4.6 3.2-2.4 1.4-4.9 2.6-2.5 1.3-5.2 2.2c37.3 44.5 60.4 105.4 65.7 120.1zm-34.3-150c-15.4-23.4-36.3-49.3-64-71.7q1.2-0.3 2.5-0.6l0.9-0.2q2.1-0.5 4.2-0.8l1.2-0.1q2.1-0.3 4.1-0.3c0.5 0 1-0.1 1.5-0.1h0.1c1.4 0 2.7 0.1 4 0.2 0.5 0 1 0 1.5 0.1q0.7 0.1 1.4 0.2 0.7 0 1.4 0.2 0.7 0.1 1.4 0.2 0.7 0.1 1.4 0.3c28.9 6 47.4 34.3 41.3 63.2q-0.2 1.1-0.5 2.2-0.3 1.1-0.6 2.2-0.3 1.1-0.7 2.2-0.4 1-0.8 2.1l-0.2 0.5q0 0 0 0 0 0.1 0 0.1-0.1 0-0.1 0.1 0 0 0 0z"/>
		<path id="Layer" class="s11" d="m744.1 443.8c-22.1-22.4-50.2-48.3-80.1-69.9q1.6-2.2 3.5-4.3 1.9-2.1 3.9-3.9 2.1-1.9 4.3-3.5 2.3-1.7 4.7-3.1h0.1q2.3-1.3 4.6-2.4l0.3-0.2q2.3-1 4.6-1.8l0.6-0.2q1-0.3 2-0.6c27.7 22.4 48.6 48.3 64 71.7q-0.4 1-0.9 2-0.4 1-0.9 2-0.5 1-1.1 1.9-0.5 0.9-1.1 1.9-0.9 1.4-1.9 2.8-0.9 1.4-2 2.7-1.1 1.3-2.2 2.5-1.1 1.2-2.4 2.4z"/>
		<path id="Layer" class="s5" d="m632.3 394.3c-6 28.9 12.5 57.2 41.4 63.3 28.8 6 57.2-12.5 63.2-41.4 6-28.9-12.5-57.2-41.3-63.2-28.9-6.1-57.2 12.4-63.3 41.3z"/>
		<path id="Layer" class="s6" d="m653.2 362.1q4.5-3.3 9.6-5.6 5.2-2.3 10.6-3.4 5.5-1.2 11.1-1.2 5.6-0.1 11.1 1.1c28.8 6 47.3 34.3 41.3 63.2q-0.5 2.3-1.2 4.5-0.6 2.3-1.5 4.4-0.9 2.2-1.9 4.3-1.1 2.1-2.3 4c-23.6-8-59.2-27.1-76.8-71.3z"/>
		<path id="Layer" class="s7" d="m654.9 399.5c0-13.3 10.7-24 24-24h11.5c13.2 0 24 10.7 24 24v11.5c0 13.2-10.8 24-24 24h-11.5c-13.3 0-24-10.8-24-24z"/>
		<path id="Layer" class="s16" d="m246.1 601.5l-26.2-26.7c0 0 83.7-170.2 198.9-209.6 115.2-39.4 205.8 19.7 262 67.9 56.1 48.3 88.6 145.8 88.6 145.8l-20.7 22.6z"/>
		<path id="Layer" class="s6" d="m378.7 433.4c0 0 94.4-74.4 112.9-74.4 18.5 0 108.6 65.3 108.6 65.3l-14.9 18c0 0-78.8-64-93.7-64-15 0-89.1 64-89.1 64z"/>
		<path id="Layer" class="s6" d="m425.4 462c0 0 54.3-46 69.8-46 15.5 0 67.1 40.1 67.1 40.1l-14 27.4c0 0-41.1-44.5-53.1-44.5-12.1 0-58.3 41.4-58.3 41.4z"/>
		<path id="Layer" class="s7" d="m219.9 574.8l73-24.5c0 0-23.3-75.8 44.7-112.2 67.9-36.5 98 0.9 107.3 22.6 9.4 21.7 9.4 78.8 9.4 78.8h80.9c0 0-0.8-85 34-109.3 34.8-24.3 87.1-27.6 107.5 17.7 20.5 45.3 0 84.7 0 84.7l92.7 46.3-20.7 22.6h-502.6z"/>
		<path id="Layer" class="s17" d="m434.6 496.5c0.1 8.6-3.2 16.9-9.2 23-6.1 6.2-14.3 9.6-22.9 9.6-8.6 0-16.9-3.4-22.9-9.6-6.1-6.1-9.4-14.4-9.3-23 0.1-8.4 3.5-16.5 9.6-22.5 6-5.9 14.1-9.2 22.6-9.2 8.4 0 16.5 3.3 22.6 9.2 6 6 9.4 14.1 9.5 22.5z"/>
		<path id="Layer" class="s18" d="m425.4 496.5c0.1 6.2-2.2 12.1-6.6 16.5-4.3 4.4-10.2 6.9-16.3 6.9-6.2 0-12.1-2.5-16.4-6.9-4.3-4.4-6.7-10.3-6.6-16.5 0.1-6 2.5-11.8 6.8-16 4.3-4.2 10.1-6.6 16.2-6.6 6 0 11.8 2.4 16.1 6.6 4.3 4.2 6.7 10 6.8 16z"/>
		<path id="Layer" class="s7" d="m397.6 482.2c0 2.6-1 5-2.7 6.7-1.8 1.8-4.2 2.8-6.7 2.8-2.6 0-5-1-6.7-2.8-1.8-1.7-2.8-4.1-2.8-6.7 0-2.5 1-4.9 2.8-6.7 1.7-1.7 4.1-2.7 6.7-2.7 2.5 0 4.9 1 6.7 2.7 1.7 1.8 2.7 4.2 2.7 6.7z"/>
		<path id="Layer" class="s17" d="m617.5 496.5c0 8.6-3.4 16.7-9.5 22.8-6 6-14.2 9.4-22.7 9.4-8.5 0-16.7-3.4-22.8-9.4-6-6.1-9.4-14.2-9.4-22.8 0-8.5 3.4-16.7 9.4-22.7 6.1-6.1 14.3-9.4 22.8-9.4 8.5 0 16.7 3.3 22.7 9.4 6.1 6 9.5 14.2 9.5 22.7z"/>
		<path id="Layer" class="s18" d="m608.3 496.5c0.1 6.2-2.3 12.1-6.6 16.5-4.4 4.4-10.3 6.9-16.4 6.9-6.2 0-12.1-2.5-16.4-6.9-4.3-4.4-6.7-10.3-6.6-16.5 0.1-6 2.6-11.8 6.9-16 4.3-4.2 10.1-6.6 16.1-6.6 6 0 11.8 2.4 16.1 6.6 4.3 4.2 6.8 10 6.9 16z"/>
		<path id="Layer" class="s7" d="m580.5 482.2c0 2.6-1 5-2.8 6.7-1.8 1.8-4.2 2.8-6.7 2.8-2.5 0-4.9-1-6.7-2.8-1.8-1.7-2.8-4.1-2.8-6.7 0-2.5 1-4.9 2.8-6.7 1.8-1.7 4.2-2.7 6.7-2.7 2.5 0 4.9 1 6.7 2.7 1.8 1.8 2.8 4.2 2.8 6.7z"/>
		<path id="Layer" class="s15" d="m838.3 601.5h-66.9l20.7-22.6c0 0-0.4-1.2-1.2-3.3h47.4l62.5-76.8c3.9 10.7 5.8 17.3 5.8 17.4z"/>
		<path id="Layer" class="s19" d="m771.4 601.5h-22.7l20.7-22.6c0 0-0.4-1.2-1.1-3.3h22.6c0.8 2.1 1.2 3.3 1.2 3.3 0 0-20.7 22.6-20.7 22.6z"/>
		<path id="Layer" class="s20" d="m769.4 578.9l-6.6-3.3h5.5c0.7 2.2 1.1 3.3 1.1 3.3z"/>
		<path id="Layer" class="s21" d="m748.7 601.5h-502.6l-25.4-25.9h542.1l6.6 3.3c0 0-20.7 22.6-20.7 22.6z"/>
		<path id="Layer" class="s7" d="m444.4 531.3c0 0-30.7 7.9-41.9 37.1-11.3 29.2 4 50.4 29.6 56.3 25.6 5.9 62.5-13.3 62.5-13.3 0 0 30.4 29.6 66.9 22.2 36.5-7.4 48.4-49.3 30.6-74.4-17.7-25.1-61-27.9-61-27.9 0 0-66 18.9-86.7 0z"/>
		<path id="Layer" class="s22" d="m494.6 611.4c0 0 1.6 1.5 4.2 3.6v-46.6c0-0.9-0.4-1.8-1.1-2.4-0.7-0.7-1.6-1-2.5-1-0.9 0-1.8 0.3-2.5 1-0.7 0.6-1.1 1.5-1.1 2.4v44.5c1.9-0.9 3-1.5 3-1.5z"/>
		<g id="Layer">
			<path id="Layer" fill-rule="evenodd" class="s6" d="m520.1 547.1c-12.8 6.4-6.8 23-6.8 23 0 0-11.5 9.7-19 8.4-7.4-1.2-16.5-7.2-16.5-7.2 0 0 10.4-14.7-2-21.6-12.4-6.9-17.3 7.5-17.3 7.5 0 0-20.7-16.5-12.5-30.1 8.3-13.7 28.5 1.2 47.8 3.1 19.3 1.8 33.9-19 49.3-6.9 15.4 12.1-8.4 40.1-8.4 40.1 0 0-1.9-22.8-14.6-16.3zm-220-20.9c6.9 9.9 48.3-3.4 48.3-3.4l-30.6 24.4c-1.8 1.4-3.2 3-4.3 4.9-1.1 1.9-1.9 4-2.2 6.1-0.4 2.2-0.3 4.4 0.1 6.5 0.5 2.2 1.3 4.2 2.5 6.1l19.8 30.8c0 0-50.3-31.1-51.8-66-1.5-35 16.8-58.7 16.8-58.7 0 0-5.5 39.5 1.4 49.3zm345.2 47.3c0 0 19.7-29.5 19.7-38.9 0-9.4-29-24.1-29-24.1 0 0 26.1 6.9 33.6-8.4 7.6-15.3 10.4-46 10.4-46 29.3 77.1-34.7 117.4-34.7 117.4zm-366.3 28c0 0-4-3.2-8.9-15.1-4.9-11.8-3.9-29.5-3.9-29.5 0 0 2.6 8.2 10.8 21.7 8.2 13.4 21 22.9 21 22.9zm410.4 0c0 0 11.9-9.8 22.3-28 10.3-18.3 14.1-42.2 14.1-42.2 0 0 4.9 34.5 1.6 49.2-3.3 14.8-8.5 21-8.5 21zm162.8-151.7c0 0-23-49.8-82-104.1-43-39.6-97.2-56.4-123.4-62.7q5.3 0.2 10.6 0.4 5.2 0.3 10.4 0.7 5.3 0.4 10.5 1 5.2 0.6 10.4 1.3c17.6 2.5 34 7.4 49.2 13.8 78.8 51.6 114.3 149.6 114.3 149.6z"/>
			<path id="Layer" class="s6" d="m774.3 366.4c0 0 38.4 30.2 61.4 89.7 23 59.5 22.3 75.2 22.3 75.2l-97.8-122.8 65 59.8c0 0-2.6-34.9-50.9-101.9z"/>
		</g>
		<path id="Layer" class="s23" d="m923.7 496.5l-85.3 105.1v243.3q2.3-3.2 5-5.7 2.6-2.4 5.4-4.1 2.8-1.7 5.7-2.5 2.9-0.9 5.9-0.9 2.8 0 5.5 0.8 2.8 0.8 5.5 2.3 2.7 1.5 5.2 3.8 2.5 2.2 4.9 5.1l42.2-76.7z"/>
		<path id="Layer" class="s6" d="m745.8 699.4h38v-32.3h17.3l-36.3-41.3-36.3 41.3h17.3zm19 9.8h-36.3v12.5h72.6v-12.5z"/>
		<path id="Layer" class="s24" d="m740.5 322.7c-18-6.6-43-13.3-70.9-14q-5.4-0.1-10.9-0.1c-14.8 0-30 0.7-44.1 1.6q-2.8-1-5.7-1.9-2.8-0.9-5.7-1.8-2.9-0.8-5.8-1.6-2.9-0.8-5.8-1.5c17.6-4.1 39.4-7.5 62.9-7.5q9.4 0 19 0.8 3.2 0.2 6.3 0.6 3.2 0.3 6.3 0.8 3.1 0.4 6.2 1 3.1 0.5 6.2 1.2c13.5 5.8 27.8 13.1 42 22.4z"/>
		<path id="Layer" class="s13" d="m548.3 317c0 0 17-7.6 43.3-13.6q2.9 0.7 5.8 1.5 2.9 0.8 5.8 1.6 2.9 0.9 5.7 1.8 2.9 0.9 5.7 1.9c-36.5 2.4-66.3 6.8-66.3 6.8zm221.1 18.6c0 0-11-6.3-28.9-12.9-14.1-9.3-28.5-16.6-42-22.5 49.4 10.3 70.9 35.4 70.9 35.4z"/>
		<path id="Layer" fill-rule="evenodd" class="s25" d="m706.7 43.6c61.6 25.5 117.5 62.9 164.7 110 47.1 47.2 84.5 103.1 110 164.7 25.5 61.6 38.6 127.6 38.6 194.2 0 66.6-13.1 132.6-38.6 194.2-25.5 61.6-62.9 117.5-110 164.7-47.2 47.1-103.1 84.5-164.7 110-61.6 25.5-127.6 38.6-194.2 38.6-66.6 0-132.6-13.1-194.2-38.6-61.6-25.5-117.5-62.9-164.7-110-47.1-47.2-84.5-103.1-110-164.7-25.5-61.6-38.6-127.6-38.6-194.2 0-66.6 13.1-132.6 38.6-194.2 25.5-61.6 62.9-117.5 110-164.7 47.2-47.1 103.1-84.5 164.7-110 61.6-25.5 127.6-38.6 194.2-38.6 66.6 0 132.6 13.1 194.2 38.6zm-349.6 93.8c-49.2 20.4-94 50.3-131.7 88-37.7 37.7-67.6 82.5-88 131.7-20.4 49.3-30.9 102.1-30.9 155.4 0 53.3 10.5 106.1 30.9 155.4 20.4 49.2 50.3 94 88 131.7 37.7 37.7 82.5 67.6 131.7 88 49.3 20.4 102.1 30.9 155.4 30.9 53.3 0 106.1-10.5 155.4-30.9 49.2-20.4 94-50.3 131.7-88 37.7-37.7 67.6-82.5 88-131.7 20.4-49.3 30.9-102.1 30.9-155.4 0-53.3-10.5-106.1-30.9-155.4-20.4-49.2-50.3-94-88-131.7-37.7-37.7-82.5-67.6-131.7-88-49.3-20.4-102.1-30.9-155.4-30.9-53.3 0-106.1 10.5-155.4 30.9z"/>
		<path id="Layer" class="s7" d="m594 158.6c-9.2-13.3-5.1-31.7-5.2-31.7 2-7.6 0.8-15.6-3.2-22.4-4-6.7-10.5-11.6-18.1-13.5-7.6-1.9-15.7-0.8-22.4 3.2-6.7 4-11.6 10.5-13.5 18.1-1.1 4.3-9.6 41.1 10.6 74.9 15.8-2.9 38.8-9.6 55.3-24.5-1.3-1.3-2.5-2.7-3.5-4.1z"/>
	</g>
</svg>