<svg version="1.2" xmlns="http://www.w3.org/2000/svg" viewBox="0 0 1024 1024" width="1024" height="1024">
	<title>vault-svg</title>
	<style>
		.s0 { fill: #000000 } 
	</style>
	<g id="g8">
		<path id="path2" fill-rule="evenodd" class="s0" d="m1019.5 512.3c0 5-2.6 9.8-6.9 12.4l-42.6 26.4q-0.6 6.2-1.2 12.4l36.5 34.1c3.8 3.5 5.4 8.6 4.4 13.6-0.9 5-4.4 9.1-9.2 10.9l-46.8 17.5q-1.8 6.1-3.7 12.1l29.2 40.5c3 4.1 3.6 9.5 1.7 14.2-2 4.7-6.2 8-11.2 8.8l-49.3 8.1q-2.9 5.6-6 11.1l20.8 45.5c2.1 4.6 1.6 10-1.2 14.2-2.8 4.2-7.6 6.7-12.7 6.5l-50.1-1.8q-3.8 4.9-7.8 9.6l11.4 48.8c1.2 5-0.3 10.2-3.9 13.7-3.5 3.7-8.7 5.1-13.7 3.9l-48.8-11.4q-4.7 4-9.6 7.8l1.8 50.1c0.4 10.9-10.8 18.4-20.7 13.9l-45.5-20.8c-3.7 2-7.4 4-11.1 6l-8.1 49.3c-1.7 10.7-14.2 15.9-23 9.5l-40.5-29.2q-6 2-12.1 3.7l-17.5 46.8c-1.8 4.8-5.9 8.2-10.9 9.2-5 1-10.1-0.6-13.6-4.4l-34.1-36.6q-6.2 0.7-12.4 1.3l-26.4 42.6c-2.6 4.3-7.4 6.9-12.4 6.9-5.1 0-9.8-2.6-12.5-6.9l-26.4-42.6q-6.2-0.6-12.4-1.3l-34.1 36.6c-3.5 3.8-8.6 5.4-13.6 4.4-5-0.9-9.1-4.4-10.9-9.2l-17.5-46.8q-6-1.7-12-3.7l-40.6 29.2c-4.1 3-9.5 3.6-14.2 1.7-4.7-2-8-6.2-8.8-11.2l-8.1-49.3q-5.5-2.9-11-6l-45.5 20.8c-9.9 4.5-21.1-3-20.8-13.9l1.8-50.1q-4.9-3.8-9.6-7.8l-48.8 11.4c-4.9 1.2-10.1-0.3-13.7-3.9-3.6-3.5-5.1-8.7-3.9-13.7l11.5-48.8q-4.1-4.7-8-9.6l-50 1.8c-5.1 0.2-9.9-2.3-12.7-6.5-2.8-4.2-3.3-9.6-1.2-14.2l20.8-45.5q-3.1-5.5-6-11.1l-49.3-8.1c-10.7-1.7-15.9-14.2-9.5-23l29.1-40.5q-1.9-6-3.6-12.1l-46.8-17.5c-10.2-3.8-12.8-17-4.9-24.5l36.6-34.1q-0.6-6.2-1.2-12.4l-42.6-26.4c-4.3-2.6-6.9-7.3-6.9-12.4 0-5.1 2.6-9.8 6.9-12.5l42.6-26.4q0.6-6.2 1.2-12.4l-36.6-34.1c-7.9-7.4-5.3-20.6 4.9-24.5l46.8-17.4q1.7-6.1 3.6-12.1l-29.1-40.6c-6.4-8.8-1.2-21.3 9.5-23l49.3-8q2.9-5.6 6-11.1l-20.8-45.5c-2.1-4.6-1.6-10 1.2-14.2 2.8-4.3 7.6-6.7 12.7-6.5l50.1 1.7q3.8-4.9 7.9-9.6l-11.5-48.8c-1.2-4.9 0.3-10.1 3.9-13.7 3.6-3.6 8.8-5.1 13.7-3.9l48.8 11.5q4.7-4 9.6-7.9l-1.8-50.1c-0.1-5.1 2.3-9.9 6.5-12.7 4.3-2.8 9.6-3.3 14.3-1.2l45.5 20.8q5.5-3.1 11-6l8.1-49.3c0.8-5 4.2-9.2 8.8-11.2 4.7-1.9 10.1-1.3 14.2 1.7l40.6 29.1q6-1.9 12.1-3.6l17.4-46.8c3.8-10.2 17.1-12.9 24.5-4.9l34.1 36.7q6.2-0.7 12.5-1.3l26.3-42.6c5.7-9.2 19.2-9.2 24.9 0l26.4 42.6q6.2 0.6 12.4 1.3l34.1-36.7c3.5-3.7 8.6-5.3 13.6-4.4 5 1 9.1 4.5 10.9 9.3l17.5 46.8q6.1 1.7 12 3.6l40.6-29.1c8.8-6.4 21.3-1.2 23 9.5l8.1 49.3q5.6 3 11.1 6l45.5-20.8c4.6-2.1 10-1.6 14.2 1.2 4.2 2.8 6.7 7.6 6.5 12.7l-1.8 50.1q4.9 3.9 9.7 7.9l48.7-11.5c5-1.2 10.2 0.3 13.7 3.9 3.6 3.6 5.1 8.8 3.9 13.7l-11.5 48.8q4.1 4.7 7.9 9.6l50.1-1.7c5.1-0.2 9.9 2.2 12.7 6.5 2.9 4.2 3.3 9.6 1.2 14.2l-20.8 45.5c2 3.6 4 7.3 6 11.1l49.3 8c10.8 1.7 15.9 14.2 9.5 23l-29.1 40.6q1.9 6 3.6 12.1l46.8 17.4c4.8 1.8 8.3 5.9 9.2 10.9 1 5-0.6 10.1-4.3 13.6l-36.6 34.1q0.6 6.2 1.2 12.4l42.6 26.4c4.3 2.7 6.9 7.4 6.9 12.5zm-876-43.2c-1.4 13.1-2.1 26.4-2.1 39.9 1.6 79.5 42.5 188.2 104.6 258.1l62.3-13.3c14.8-3.2 29.4 6.2 32.6 21.1l15.1 70.6c47.5 22 100.4 34.4 156.2 34.4 54.6 0 106.4-11.8 153.1-33l15.1-70.5c3.2-14.9 17.8-24.3 32.6-21.2l63.8 13.7c74-73.3 115.9-169 106.4-259.9 0-12.4-0.7-24.7-1.8-36.9l-68.5-30.3c-13.8-6.2-20.1-22.4-13.9-36.3l35.5-80.3c-53.1-92.9-145.2-160.6-253.9-180.8l-51.9 49.6c-11 10.5-28.4 10.1-38.9-0.9 0 0-48-49.6-51.3-48.7-47.5 12.8-122 27.4-162.6 62.9-39.5 34.6-75.4 78.7-81.4 126.1-0.9 6.8 27.8 70.6 27.8 70.6 6.2 13.9-0.1 30.1-13.9 36.3 0 0-64.9 28.8-64.9 28.8zm619.8 360.8c3.5-16.2-6.9-32.3-23.2-35.8-16.2-3.5-32.2 6.9-35.7 23.2-3.5 16.3 6.8 32.3 23.1 35.8 16.3 3.5 32.3-6.9 35.8-23.2zm-446.4-14.1c-3.5-16.3-19.5-26.6-35.7-23.2-16.3 3.6-26.7 19.6-23.2 35.9 3.5 16.3 19.5 26.7 35.8 23.2 16.3-3.5 26.6-19.6 23.1-35.9zm-177.8-445.8c-15.2 6.8-22.1 24.6-15.4 39.8 6.8 15.3 24.6 22.1 39.8 15.4 15.2-6.7 22.1-24.6 15.3-39.8-6.7-15.2-24.5-22.1-39.7-15.4zm349.8-224.3c11.5 12.1 30.5 12.5 42.6 1 12-11.5 12.4-30.6 1-42.7-11.5-12-30.6-12.4-42.6-0.9-12.1 11.5-12.5 30.6-1 42.6zm368.9 281c15.2 6.7 33-0.2 39.8-15.4 6.7-15.2-0.2-33.1-15.4-39.8-15.2-6.7-33 0.1-39.7 15.3-6.7 15.3 0.1 33.1 15.3 39.9z"/>
		<g id="g6">
			<path id="path4" class="s0" d="m165 228l140.5-67.6 205.3 554.2 186.6-528.8 158.7 42.2-244.2 659.3h-202.7z"/>
		</g>
	</g>
</svg>