<svg version="1.2" xmlns="http://www.w3.org/2000/svg" viewBox="0 0 1024 1024" width="1024" height="1024">
	<title>omada-svg</title>
	<defs>
		<clipPath clipPathUnits="userSpaceOnUse" id="cp1">
			<path d="m249.88 9.55c-144.8 0-240.36 93.6-240.36 240.33v524.43c0 146.74 95.56 240.36 240.36 240.36h524.43c144.8 0 240.34-93.62 240.34-240.36v-524.43c0-146.73-95.54-240.33-240.34-240.33z"/>
		</clipPath>
		<clipPath clipPathUnits="userSpaceOnUse" id="cp2">
			<path d="m541.7 493.78c40.63 0 73.7 32.14 73.7 71.68v65.96h-26.5v-10.99c-13.32 10.8-30 16.71-47.2 16.71-40.63 0-73.71-32.14-73.71-71.68 0-39.54 33.08-71.68 73.71-71.68zm47.2 71.68c0-25.37-21.08-45.87-47.17-45.87-26.08 0-47.16 20.5-47.16 45.87 0 25.37 21.08 45.87 47.16 45.87 26.09 0 47.17-20.5 47.17-45.87z"/>
		</clipPath>
		<clipPath clipPathUnits="userSpaceOnUse" id="cp3">
			<path d="m784.74 448.26v183.16h-26.56v-10.94c-12.75 10.4-29.23 16.66-47.15 16.66-40.63 0-73.68-32.14-73.68-71.68 0-39.54 33.05-71.68 73.68-71.68q6.39 0 12.69 1.08 6.3 1.09 12.33 3.23 6.02 2.13 11.6 5.26 5.57 3.13 10.53 7.16v-62.25zm-26.55 117.2c0-25.37-21.08-45.87-47.15-45.87-26.08 0-47.15 20.5-47.15 45.87 0 25.37 21.07 45.87 47.15 45.87 26.07 0 47.15-20.5 47.15-45.87z"/>
		</clipPath>
		<clipPath clipPathUnits="userSpaceOnUse" id="cp4">
			<path d="m879.76 493.78c40.66 0 73.7 32.14 73.7 71.68v65.96h-26.53v-10.99c-13.29 10.8-29.95 16.71-47.17 16.71-40.63 0-73.66-32.14-73.66-71.68 0-39.54 33.03-71.68 73.66-71.68zm47.17 71.68c0-25.37-21.08-45.87-47.16-45.87-26.08 0-47.16 20.5-47.16 45.87 0 25.37 21.08 45.87 47.16 45.87 26.08 0 47.16-20.5 47.16-45.87z"/>
		</clipPath>
		<clipPath clipPathUnits="userSpaceOnUse" id="cp5">
			<path d="m341.11 515.12c-2.8-3.34-5.96-6.37-9.43-9.02-3.46-2.65-7.2-4.92-11.16-6.76-3.96-1.83-8.11-3.23-12.37-4.16-4.26-0.93-8.62-1.39-12.98-1.38-32.6 0-59.13 25.79-59.13 57.53v80.11h26.53v-80.11c0-17.5 14.64-31.74 32.6-31.74 18.01 0 32.68 14.24 32.68 31.74v80.11h26.53v-80.11c0-17.5 14.64-31.74 32.63-31.74 18.01 0 32.65 14.24 32.65 31.74v80.11h26.53v-80.11c0-31.74-26.56-57.53-59.18-57.53-17.9 0-34.56 7.78-45.9 21.32z"/>
		</clipPath>
		<clipPath clipPathUnits="userSpaceOnUse" id="cp6">
			<path d="m143 637.14c-39.64 0-71.69-31.68-71.69-70.86 0-39.19 32.05-70.87 71.69-70.87 39.65 0 71.69 31.68 71.69 70.87 0 39.18-32.04 70.86-71.69 70.86zm48.56-70.86c0-26.55-21.7-48.02-48.56-48.02-26.85 0-48.56 21.47-48.56 48.02 0 26.55 21.71 48.01 48.56 48.01 26.86 0 48.56-21.46 48.56-48.01z"/>
		</clipPath>
		<clipPath clipPathUnits="userSpaceOnUse" id="cp7">
			<path d="m398.22 402.44l24.32 24.18c26.23-35.49 70.54-58.26 115.62-58.26 45.15 0 89.51 22.77 115.76 58.26l24.25-24.14c-32.72-44.26-83.94-68.4-140.01-68.4-56.02 0-107.19 24.09-139.94 68.36z"/>
		</clipPath>
		<clipPath clipPathUnits="userSpaceOnUse" id="cp8">
			<path d="m446.23 455.47l24.63 24.51c17.03-20.53 41.68-33.02 67.09-33.02 25.46 0 50.02 13.01 67.1 33.6l24.9-24.83c-23.62-28.49-56.23-43.1-92-43.1-35.72 0-68.14 14.38-91.72 42.84z"/>
		</clipPath>
	</defs>
	<style>
		.s0 { fill: #ffffff } 
		.s1 { fill: #49515f } 
		.s2 { fill: #21b6c4 } 
	</style>
	<g id="Clip-Path" clip-path="url(#cp1)">
		<path id="Layer" class="s0" d="m-69-69h1162.2v1162.2h-1162.2z"/>
	</g>
	<g id="Layer">
		<g id="Clip-Path" clip-path="url(#cp2)">
			<path id="Layer" class="s1" d="m389.5 415.3h304.4v300.4h-304.4z"/>
		</g>
		<g id="Clip-Path" clip-path="url(#cp3)">
			<path id="Layer" class="s1" d="m558.8 369.7h304.5v346h-304.5z"/>
		</g>
		<g id="Clip-Path" clip-path="url(#cp4)">
			<path id="Layer" class="s1" d="m727.6 415.3h304.4v300.4h-304.4z"/>
		</g>
		<g id="Clip-Path" clip-path="url(#cp5)">
			<path id="Layer" class="s1" d="m157.5 415.3h367.2v294.7h-367.2z"/>
		</g>
		<g id="Clip-Path" clip-path="url(#cp6)">
			<path id="Layer" class="s1" d="m-7.2 416.9h300.4v298.8h-300.4z"/>
		</g>
	</g>
	<g id="Clip-Path" clip-path="url(#cp7)">
		<path id="Layer" class="s2" d="m319.7 255.6h437v249.6h-437z"/>
	</g>
	<g id="Clip-Path" clip-path="url(#cp8)">
		<path id="Layer" class="s2" d="m367.7 334.1h340.8v225h-340.8z"/>
	</g>
</svg>