<svg version="1.2" xmlns="http://www.w3.org/2000/svg" viewBox="0 0 512 512" width="512" height="512">
	<title>image</title>
	<style>
		.s0 { fill: #13bef9 } 
		.s1 { fill: #ffffff } 
	</style>
	<g id="Background">
		<path id="Path 0" class="s0" d="m504 233c-0.6-6.3-1.4-14.7-1.8-18.5-0.4-3.8-1.1-7.7-1.6-8.5-0.5-0.8-1.3-3.8-1.7-6.5-0.4-2.8-1.2-6.8-1.7-9-0.6-2.2-1.5-5.3-2.1-7-0.6-1.7-1.7-5-2.5-7.5-0.8-2.5-2.2-6.5-3.1-9-0.9-2.5-2.6-6.5-3.7-9-1.2-2.5-4.1-8.6-6.5-13.5-2.4-4.9-5.9-11.5-7.8-14.5-1.8-3-4.3-7.3-5.5-9.5-1.2-2.2-6.1-9.2-10.9-15.5-4.7-6.3-13-16-18.3-21.5-5.3-5.5-12.7-12.5-16.3-15.5-3.6-3-8.7-7.3-11.3-9.5-2.6-2.2-8.1-6.2-12.2-8.9-4.1-2.8-9.1-6-11-7.2-1.9-1.1-5.3-3.2-7.5-4.5-2.2-1.3-7.8-4.2-12.5-6.5-4.7-2.3-12.1-5.7-16.5-7.4-4.4-1.8-11.4-4.4-15.5-5.7-4.1-1.4-9.1-2.9-11-3.3-1.9-0.5-6.6-1.6-10.5-2.5-3.9-1-9.9-2.1-13.5-2.5-3.6-0.5-8.7-1.3-11.5-1.9-2.7-0.5-8-1-11.7-1-4.1-0.1-35.5-0.1-40.5-0.1-3.8 0.1-8.8 0.5-11.3 1.1-2.5 0.5-7.7 1.4-11.5 1.9-3.8 0.5-9 1.4-11.5 1.9-2.5 0.5-7 1.6-10 2.4-3 0.8-10.2 3.1-16 5-5.8 1.9-13.9 4.9-18 6.7-4.1 1.7-12.2 5.6-18 8.7-5.8 3.1-13.4 7.5-17 9.8-3.6 2.3-10.3 7.1-14.9 10.6-4.6 3.5-10.2 7.8-12.5 9.5-2.3 1.7-9.6 8.7-16.3 15.5-6.8 6.8-13.3 13.8-14.5 15.5-1.3 1.8-5.2 6.9-8.7 11.5-3.5 4.6-8.3 11.3-10.6 14.9-2.3 3.6-6.7 11.2-9.8 17-3.1 5.8-7 13.9-8.7 18-1.8 4.1-4.9 12.7-7 19-2.1 6.3-4.5 14.7-5.5 18.5-0.9 3.8-2 8.6-2.6 10.5-0.5 1.9-0.9 5.4-0.9 7.8 0 2.3-0.5 5.4-1.1 7-0.5 1.5-1.4 7.9-1.9 14.2-0.1 1.2-0.2 3.3-0.2 6-0.1 11.8 0.3 34.9 0.6 39.8 0.3 5.6 1.1 11.1 1.6 12.2 0.6 1.1 1 4.3 1 7 0 2.8 0.4 6 0.9 7.3 0.5 1.2 1.7 5.8 2.6 10.2 1 4.4 3.1 11.8 4.5 16.5 1.5 4.7 4.2 12.1 6 16.5 1.7 4.4 5.1 11.8 7.4 16.5 2.3 4.7 5.2 10.3 6.5 12.5 1.3 2.2 3.4 5.6 4.5 7.5 1.2 1.9 4.4 6.9 7.2 11 2.7 4.1 6.7 9.6 8.9 12.2 2.2 2.6 6.5 7.7 9.5 11.3 3 3.6 10 11 15.5 16.3 5.5 5.3 15.2 13.6 21.5 18.3 6.3 4.8 13.3 9.7 15.5 10.9 2.2 1.2 6.5 3.7 9.5 5.5 3 1.9 9.6 5.4 14.5 7.8 4.9 2.4 11.6 5.6 14.8 7 3.1 1.5 6 2.7 6.5 2.7 0.4 0 3.4 1.1 6.7 2.5 3.3 1.3 7.1 2.5 8.5 2.5 1.4 0 3.4 0.6 4.5 1.4 1.1 0.7 3.6 1.6 5.5 2 1.9 0.4 5.8 1 8.5 1.5 2.8 0.4 5.7 1.2 6.5 1.7 0.8 0.5 4.4 1.2 8 1.6 3.6 0.5 11.9 1.2 18.5 1.8 8.8 0.7 38.1 0.6 46 0 6.1-0.6 14.4-1.3 18.5-1.8 4.1-0.4 8.5-1.3 9.8-2 1.2-0.6 3.3-1.2 4.7-1.2 1.4 0 4.9-0.6 7.7-1.4 2.9-0.8 6.7-1.9 8.3-2.5 1.6-0.5 5-1.5 7.5-2.2 2.5-0.7 5.4-1.8 6.5-2.5 1.1-0.6 3.2-1.4 4.7-1.8 1.6-0.3 9.2-3.7 17-7.4 7.9-3.8 18.8-9.7 24.3-13.2 5.5-3.4 13.3-8.8 17.4-11.9 4-3.1 8.5-6.4 10-7.3 1.4-1 9.1-8.2 17-16 7.9-7.9 15.3-15.7 16.5-17.4 1.1-1.7 4.6-6.4 7.7-10.5 3.1-4.1 8.5-11.9 11.9-17.4 3.5-5.5 9.4-16.4 13.2-24.3 3.7-7.8 7.1-15.4 7.4-16.9 0.4-1.6 1.2-3.7 1.8-4.8 0.6-1.1 1.6-3.6 2.3-5.5 0.7-1.9 1.3-4.3 1.3-5.2 0-1 0.6-3 1.4-4.5 0.7-1.6 1.9-4.9 2.5-7.5 0.6-2.7 1.1-5.9 1.1-7.3 0-1.4 0.6-3.5 1.2-4.7 0.7-1.3 1.6-5.7 2-9.8 0.5-4.1 1.3-12.4 1.8-18.5 0.7-7.3 0.7-37.3 0-45.5zm-261-227"/>
		<path id="Path 1" class="s1" d="m210.3 309.6c-2.9 0.8-7.4 2.7-10.1 4.3-2.6 1.6-6.3 4.9-8.4 7.2-2 2.4-4.6 6.6-5.9 9.4-1.2 2.7-2.7 5.3-3.3 5.7-0.6 0.4-2.6 0.8-4.4 0.8-1.7 0-5.3 0.5-8 1.2-2.6 0.7-6.7 2.3-9.1 3.7-2.5 1.4-6.7 5.1-9.3 8.1-2.7 3.1-5.8 7.9-6.9 11-1.7 4.4-2 7.3-1.7 14.5 0.2 7.3 0.8 10 3 14.5 1.5 3 4.9 7.6 7.5 10.3 2.6 2.6 7.3 5.9 10.3 7.4 4.2 2 7.5 2.7 14 3l8.5 0.4c8.7 9.9 12.6 12.9 16.5 14.9 3.3 1.6 8.6 3.3 11.7 3.8 3.2 0.4 8.4 0.4 11.5 0 3.2-0.5 7.9-1.9 10.5-3.2 2.7-1.3 6.8-4.2 9.3-6.5 2.5-2.3 4.7-4.1 5-4.1 0.3 0 3.9 1.6 8 3.6 7.2 3.6 7.8 3.7 16.5 3.3 7.5-0.3 10-0.9 15-3.4 3.3-1.6 8-5 10.4-7.5 2.4-2.5 5.2-6.1 6.1-8 1-1.9 2.6-6.9 3.6-11 1.6-7.2 1.6-7.8 0-14.5-1-3.9-2.7-8.8-3.8-11-1.8-3.5-2-4.8-1.2-10.2 0.6-4.4 0.5-8.1-0.5-13-0.7-3.7-2.2-8.5-3.2-10.6-1-2-4-5.8-6.7-8.3-2.6-2.5-7.2-5.8-10.2-7.2-4.8-2.4-6.7-2.7-15.6-2.7-8.6 0-10.8 0.4-15 2.4-2.7 1.3-5.6 2.1-6.4 1.7-0.8-0.3-3.8-2.2-6.5-4.2-2.8-1.9-7.9-4.4-11.5-5.4-3.6-1.1-8.3-1.9-10.5-1.9-2.2 0.1-6.4 0.8-9.3 1.5z"/>
		<path id="Path 2" class="s1" d="m149.3 263.3c-0.5 0.6-1.7 3-2.5 5.2-0.9 2.2-2.2 5.8-2.9 8-0.6 2.2-1.2 7.8-1.2 12.5 0 4.7 0.6 10.5 1.3 13 0.6 2.5 2.6 7.4 4.3 11 1.8 3.9 5.4 9 9.1 12.9 5.7 5.9 6.3 6.3 9.6 5.7 1.9-0.3 5.4-0.6 7.7-0.6 4.3 0 4.3 0 6.5-5.7 1.5-3.7 4.1-7.6 7.3-10.9 2.8-2.8 7.6-6.2 10.7-7.7 3.2-1.5 8.4-3.2 11.5-3.8 3.2-0.6 8.5-0.8 11.8-0.5 3.3 0.4 8.2 1.4 11 2.3 2.7 0.9 6.3 2.5 8 3.5 1.6 1 3.6 1.8 4.2 1.8 0.7 0 2.1-2.4 3-5.3 1.2-3.6 1.7-8.4 1.6-15.7-0.1-8.6-0.5-11.8-2.7-18-1.4-4.1-3.2-7.8-3.9-8.2-0.6-0.4-22-0.8-47.3-0.8-35.8 0-46.4 0.3-47.1 1.2z"/>
		<path id="Path 3" class="s1" d="m215.5 230.6c-0.4 0.4-0.8 5.9-0.7 12.3 0.1 7.9 0.6 12 1.4 12.9 0.9 0.8 4.8 1.2 12.6 1.2 10.8 0 11.2-0.1 11.7-2.2 0.3-1.3 0.5-7.2 0.3-13.3l-0.3-11c-18.7-0.4-24.5-0.2-25 0.1z"/>
		<path id="Path 4" class="s1" d="m184 243c0 10.7 0.3 13.1 1.5 13.5 0.8 0.3 6 0.5 11.4 0.5 7.5 0 10.3-0.4 11.5-1.5 1.3-1.2 1.6-3.8 1.6-12.5 0-10-0.2-11.1-2-12-1.1-0.6-6.9-1-13-1h-11z"/>
		<path id="Path 5" class="s1" d="m152.5 230.6c-0.4 0.4-0.8 6.3-0.7 13.1 0.2 11.9 0.3 12.3 2.5 12.8 1.2 0.3 6.9 0.5 12.7 0.3l10.5-0.3v-26c-18.7-0.4-24.5-0.2-25 0.1z"/>
		<path id="Path 6" class="s1" d="m184 212c0 10.7 0.3 13.1 1.5 13.5 0.8 0.3 5.6 0.5 10.5 0.5 4.9 0 10.1-0.4 11.5-1 2.4-1 2.5-1.2 2.5-11.5 0-5.8-0.4-11.4-1-12.5-0.9-1.8-2-2-13-2h-12z"/>
		<path id="Path 7" class="s1" d="m151.2 211.8l0.3 12.7 25 0.6c1.2-5.1 1.5-9.5 1.5-13.1 0-3.6-0.3-8-0.7-9.8l-0.8-3.2h-25.6z"/>
		<path id="Path 8" class="s1" d="m268.5 82.3c-0.2 0.6-0.6 3.9-0.7 7.2l-0.3 5.9c-13.2 8.3-17.9 11.1-19 11.6-1.1 0.5-4.3 2.3-7 4-2.8 1.6-5.7 3.3-6.5 3.7-0.8 0.4-8.5 4.8-17 9.8-8.5 5-20.7 12.1-27 15.8l-11.5 6.6c-31.8 0.1-41.6 0.5-42.3 0.9-0.8 0.4-1.2 2.3-1 5.2l0.3 4.5c66.6 0.5 76.2 0.9 76.7 1.8 0.4 0.7 0.8 12.3 0.8 26v24.7h28c0-38.4 0.4-50.1 0.8-50.8 0.5-0.9 3.9-1.1 12.7-1l12 0.3c0.5 131.2 0.9 149.3 1.8 150.3 0.7 0.8 2.8 1.2 5.2 1l4-0.3 1-151c5.7-0.6 6.1-0.3 6.8 2.7 0.4 1.8 0.7 36.6 0.7 77.3l0.1 74c6.9 4.3 9.3 5.5 9.9 5.5 0.7 0 1.1-27.4 1.2-79.8l0.3-79.7 86-1v-10c-15.1-0.4-18.4-1-20.8-2.4-1.7-1-5.7-3.3-8.7-5.1-3-1.8-6.9-4-8.5-5-1.6-0.9-5.3-2.9-8-4.5-2.8-1.5-10.9-6.1-18-10.3-7.1-4.2-19.4-11.3-27.3-15.9l-14.2-8.3c0-10-0.5-13-1.2-13.8-0.7-0.7-3-1.2-5.1-1.2-2.1 0-3.9 0.6-4.2 1.2z"/>
		<path id="Path 9" class="s0" d="m220.9 159.7c-1 1.1-1.4 4.6-1.4 11.4 0 5.3 0.2 10 0.5 10.3 0.3 0.3 2.1 0.9 4 1.2 1.9 0.4 5.6 0.4 8.2 0l4.8-0.6c0-21-0.2-22.1-2-23-1.1-0.6-4.4-1-7.4-1-3.8 0-5.8 0.5-6.7 1.7zm58.5-49c-0.4 0.3-0.7 8.7-0.6 18.5l0.2 17.8c51.8 0 63-0.4 63-1 0-0.6-0.3-1-0.8-1-0.4 0-6.6-3.4-13.7-7.6-7.1-4.2-20.4-11.9-29.5-17.1-9.1-5.3-16.8-9.7-17.1-9.9-0.4-0.2-1-0.1-1.5 0.3zm-25.4 5.7c-5.8 3.4-16.6 9.8-24 14.1-7.4 4.3-15.1 8.7-17 9.7-1.9 1.1-4.8 3-6.5 4.4l-3 2.4h64.5c0-35.5-0.1-37-1.8-36.9-0.9 0-6.4 2.9-12.2 6.3z"/>
	</g>
</svg>