<svg version="1.2" xmlns="http://www.w3.org/2000/svg" viewBox="0 0 1024 1024" width="512" height="512">
	<title>favicon-svg</title>
	<defs>
		<linearGradient id="g1" x2="1" gradientUnits="userSpaceOnUse" gradientTransform="matrix(423.61,768.05,-768.05,423.61,352.12,12)">
			<stop offset="0" stop-color="#72b4f5"/>
			<stop offset="1" stop-color="#356ebf"/>
		</linearGradient>
	</defs>
	<style>
		.s0 { fill: url(#g1);stroke: #daefff;stroke-width: 31.3 } 
		.s1 { fill: #ffffff } 
		.s2 { fill: #c8e8ff } 
	</style>
	<g id="Layer">
		<path id="Layer" class="s0" d="m512 996.4c-267.9 0-484.4-216.5-484.4-484.4 0-267.9 216.5-484.4 484.4-484.4 267.9 0 484.4 216.5 484.4 484.4 0 267.9-216.5 484.4-484.4 484.4z"/>
		<path id="Layer" fill-rule="evenodd" class="s1" d="m708.2 336.6q65.1 0 100.9 44.6 36.2 44.3 36.2 125.7 0 81.3-36.5 126.5-36.1 45-100.6 45-32.3 0-59.1-11.8-26.5-12.1-44.6-36.8h-3.6l-10.5 42.5h-35.9v-468.9h50v113.9q0 38.3-2.4 68.7h2.4q35-49.4 103.7-49.4zm-7.2 41.9q-51.3 0-73.9 29.5-22.6 29.3-22.6 98.9 0 69.6 23.2 99.7 23.2 29.9 74.5 29.9 46.1 0 68.7-33.5 22.6-33.7 22.6-96.7 0-64.5-22.6-96.2-22.6-31.6-69.9-31.6z"/>
		<path id="Layer" fill-rule="evenodd" class="s2" d="m314.3 678.4q-63.9 0-99.7-45-35.9-44.9-35.9-125.3 0-81.1 36.2-126.6 36.1-45.5 100.6-45.5 67.8 0 104.3 51.2h2.7l7.2-45.2h39.5v478.6h-50v-141.3q0-30.2 3.3-51.3h-3.9q-34.7 50.4-104.3 50.4zm7.5-41.9q50.1 0 73-26.9 22.9-26.8 24.4-90.4v-11.1q0-69.3-23.5-99.8-23.5-30.4-74.5-30.4-44 0-67.5 34.4-23.2 34-23.2 96.4 0 62.4 22.9 95.2 23.2 32.6 68.4 32.6z"/>
	</g>
</svg>